<?xml version="1.0" encoding="utf-8"?>
<!-- Generator: Adobe Illustrator 27.5.0, SVG Export Plug-In . SVG Version: 6.00 Build 0)  -->
<svg version="1.1" id="レイヤー_1" xmlns="http://www.w3.org/2000/svg" xmlns:xlink="http://www.w3.org/1999/xlink" x="0px"
	 y="0px" viewBox="0 0 135.1 26" style="enable-background:new 0 0 135.1 26;" xml:space="preserve">
<style type="text/css">
	.st0{fill:#3F3F3F;}
	.st1{fill:#007C72;}
	.st2{fill:#006988;}
</style>
<g>
	<path class="st0" d="M75.2,11.2c-0.9-1.4-2.6-2.3-4.6-2.3h-0.5c-1.9,0-3.6,0.9-4.6,2.3c-0.5,0.8-0.8,1.9-0.8,3.5v1.4
		c0,1.6,0.3,2.7,0.8,3.5c0.9,1.4,2.6,2.3,4.6,2.3h0.5c1.9,0,3.6-0.9,4.6-2.3c0.5-0.8,0.8-1.9,0.8-3.5v-1.4
		C76,13.1,75.8,12,75.2,11.2z M73,16.1c0,1.2-0.2,1.7-0.3,1.9c-0.4,0.6-1.1,1-2.1,1h-0.5c-0.9,0-1.6-0.3-2.1-1
		c-0.1-0.2-0.3-0.7-0.3-1.9v-1.4c0-1.2,0.2-1.7,0.3-1.9c0.4-0.6,1.1-1,2.1-1h0.5c0.9,0,1.6,0.3,2.1,1c0.1,0.2,0.3,0.7,0.3,1.9V16.1z
		"/>
	<polygon class="st0" points="30.7,4.1 30.7,7.1 38.6,7.1 30.7,19.1 30.7,21.7 42.5,21.7 42.5,18.7 34.5,18.7 42.5,6.5 42.5,4.1 	
		"/>
	<path class="st0" d="M55,16.3v-2.2c-0.1-1.3-0.3-2.2-0.8-2.9c-0.9-1.4-2.6-2.3-4.6-2.3h-0.5c-1.9,0-3.6,0.9-4.6,2.3
		c-0.5,0.8-0.8,1.9-0.8,3.5v1.4c0,1.6,0.3,2.7,0.8,3.5c0.9,1.4,2.6,2.3,4.6,2.3h0.5c1.9,0,3.6-0.9,4.6-2.3c0.2-0.2,0.3-0.5,0.4-0.8
		l-2.8-0.9c0,0,0,0.1-0.1,0.1c-0.4,0.6-1.1,1-2.1,1h-0.5c-0.9,0-1.6-0.4-2.1-1c-0.3-0.5-0.3-1.7-0.3-1.7H55z M49.1,11.8h0.5
		c1,0,1.8,0.6,2.1,1c0.1,0.2,0.3,0.5,0.3,1.3h-5.2c0.1-0.8,0.2-1.2,0.3-1.3C47.4,12.1,48.2,11.8,49.1,11.8z"/>
	<path class="st0" d="M132.1,4.1v5.3c-0.7-0.3-1.6-0.5-2.5-0.5h-0.4c-1.9,0-3.6,0.9-4.6,2.3c-0.5,0.8-0.8,1.9-0.8,3.5v1.4
		c0,1.6,0.3,2.7,0.8,3.5c0.9,1.4,2.6,2.3,4.6,2.3h0.4c0.9,0,1.7-0.2,2.5-0.7v0.5h3V4.1H132.1z M132,16.1c0,1.2-0.2,1.7-0.3,1.9
		c-0.4,0.6-1.1,1-2.1,1h-0.4c-0.9,0-1.6-0.3-2.1-1c-0.1-0.2-0.3-0.7-0.3-1.9v-1.4c0-1.2,0.2-1.7,0.3-1.9c0.4-0.6,1.1-1,2.1-1h0.4
		c0.9,0,1.6,0.3,2.1,1c0.1,0.2,0.3,0.7,0.3,1.9V16.1z"/>
	<path class="st0" d="M77.7,4.1v17.5h3v-0.5c0.8,0.5,1.6,0.7,2.5,0.7h0.4c1.9,0,3.6-0.9,4.6-2.3c0.5-0.8,0.8-1.9,0.8-3.5v-1.4
		c0-1.6-0.3-2.7-0.8-3.5c-0.9-1.4-2.6-2.3-4.6-2.3h-0.4c-0.9,0-1.7,0.2-2.5,0.5V4.1H77.7z M80.7,14.7c0-1.2,0.2-1.7,0.3-1.9
		c0.4-0.6,1.1-1,2.1-1h0.4c0.9,0,1.6,0.3,2.1,1c0.1,0.2,0.3,0.7,0.3,1.9v1.4c0,1.2-0.2,1.7-0.3,1.9c-0.4,0.6-1.1,1-2.1,1h-0.4
		c-0.9,0-1.6-0.3-2.1-1c-0.1-0.2-0.3-0.7-0.3-1.9V14.7z"/>
	<path class="st0" d="M100.8,11.2c-0.9-1.4-2.6-2.3-4.6-2.3h-0.5c-1.9,0-3.6,0.9-4.6,2.3c-0.5,0.8-0.8,1.9-0.8,3.5v1.4
		c0,1.6,0.3,2.7,0.8,3.5c0.9,1.4,2.6,2.3,4.6,2.3h0.5c1.9,0,3.6-0.9,4.6-2.3c0.5-0.8,0.8-1.9,0.8-3.5v-1.4
		C101.6,13.1,101.3,12,100.8,11.2z M98.6,16.1c0,1.2-0.2,1.7-0.3,1.9c-0.4,0.6-1.1,1-2.1,1h-0.5c-0.9,0-1.6-0.3-2.1-1
		c-0.1-0.2-0.3-0.7-0.3-1.9v-1.4c0-1.2,0.2-1.7,0.3-1.9c0.4-0.6,1.1-1,2.1-1h0.5c0.9,0,1.6,0.3,2.1,1c0.1,0.2,0.3,0.7,0.3,1.9V16.1z
		"/>
	<path class="st0" d="M113.2,11.2c-0.9-1.4-2.6-2.3-4.6-2.3h-0.5c-2.4,0-4.3,1.4-5,3l2.8,0.9c0.3-0.5,0.9-1.1,2.1-1.1l0.5,0
		c0.9,0,1.6,0.3,2.1,1c0.1,0.2,0.3,0.5,0.3,1.3h-2.4h-1.4c-1.9,0-4.5,0.6-4.5,3.6c0,3,2.7,4.1,5.4,4.1h0.5c1.2-0.1,2.1-0.2,2.8-0.7
		v0.5h2.5v-7C114,13.1,113.7,12,113.2,11.2z M111,16.3c0,1.2-0.2,1.5-0.3,1.7c-0.4,0.6-1.1,1-2.1,1l-0.8,0c-0.8-0.1-1.6-0.3-1.8-1.1
		c-0.2-0.8,0.4-1.6,1.4-1.6h1.2H111L111,16.3z"/>
	<g>
		<path class="st1" d="M13,26c3.7,0,7.1-1.5,9.6-4.2c-1.8,1.3-4,2-6.2,2c-5.5,0-10.1-4.1-10.7-9.6l0,0c-0.1-0.3-0.1-0.7-0.1-1.1
			c0-0.4,0-0.8,0.1-1.2c0.4-2.4,1.9-4.4,3.9-5.4c-6,1.3-9.1,5.7-9.6,6.5c0,0,0,0,0,0.1C0,20.2,5.8,26,13,26z"/>
		<path class="st2" d="M13,20.4c-2.2,0-4.3-1-5.7-2.7c1.7,3.3,5.2,5.5,9,5.5c0,0,0.1,0,0.1,0c4.6-0.1,7.2-2.8,7.7-3.5L19.3,17
			C18,19.1,15.6,20.4,13,20.4z"/>
		<path class="st2" d="M13,0C6.8,0,2.8,4.1,1.2,7.6C0.4,9.4,0.1,11.1,0,12.1c1.3-1.8,5.5-6.5,13-6.5c2.5,0,5,1.3,6.3,3.5l4.9-2.8
			C21.8,2.4,17.6,0,13,0z"/>
		<circle class="st1" cx="13" cy="13" r="3.3"/>
	</g>
	<path class="st0" d="M63.3,12.1l1.5-2.6C63,8.8,61,8.6,59.4,10V9h-2.8v12.6h3v-6.8c0-1.2,0.2-1.7,0.3-1.9
		C60.8,11.5,62.9,11.8,63.3,12.1"/>
	<path class="st0" d="M122.3,12.1l1.5-2.6c-1.8-0.7-3.7-0.9-5.3,0.5V9h-2.8v12.6h3v-6.8c0-1.2,0.2-1.7,0.3-1.9
		C119.9,11.5,121.9,11.8,122.3,12.1"/>
</g>
</svg>
